<svg width="24" height="24" viewBox="0 0 24 24" fill="none" xmlns="http://www.w3.org/2000/svg">
<path d="M14.2171 24H9.77849C8.89076 24 8.14698 23.3675 8.03901 22.5124L7.71511 20.2987C7.39121 20.1347 7.0793 19.959 6.7674 19.7599L4.60806 20.6032C3.76831 20.9078 2.84459 20.5681 2.43671 19.8419L0.24138 16.1288C-0.178493 15.3558 0.00145253 14.4422 0.673249 13.9268L2.50869 12.5329C2.4967 12.3572 2.4847 12.1816 2.4847 11.9941C2.4847 11.8184 2.4967 11.631 2.50869 11.4553L0.685245 10.0615C-0.0225402 9.53441 -0.202485 8.58565 0.24138 7.85944L2.46071 4.12299C2.86858 3.39678 3.7923 3.06881 4.60806 3.38507L6.7794 4.24012C7.0913 4.041 7.40321 3.8653 7.71511 3.70132L8.03901 1.46413C8.14698 0.644217 8.89076 0 9.76649 0H14.2051C15.0929 0 15.8366 0.632504 15.9446 1.48755L16.2685 3.70132C16.5924 3.8653 16.9043 4.041 17.2162 4.24012L19.3756 3.39678C20.2273 3.09224 21.151 3.43192 21.5589 4.15813L23.7662 7.88287C24.1981 8.65593 24.0062 9.56955 23.3344 10.0849L21.5109 11.4788C21.5229 11.6545 21.5349 11.8302 21.5349 12.0176C21.5349 12.205 21.5229 12.3807 21.5109 12.5564L23.3344 13.9502C24.0062 14.4773 24.1981 15.3909 23.7782 16.1288L21.5469 19.9004C21.139 20.6266 20.2153 20.9546 19.3876 20.6384L17.2282 19.795C16.9163 19.9941 16.6044 20.1698 16.2925 20.3338L15.9686 22.571C15.8486 23.3675 15.1049 24 14.2171 24ZM10.3423 21.6574H13.6533L14.0972 18.6706L14.733 18.4129C15.2608 18.202 15.7887 17.8975 16.3405 17.4993L16.8803 17.101L19.7355 18.2255L21.391 15.4143L18.9557 13.5637L19.0397 12.9078C19.0757 12.6032 19.1117 12.3104 19.1117 11.9941C19.1117 11.6779 19.0757 11.3734 19.0397 11.0805L18.9557 10.4246L21.391 8.57394L19.7235 5.76281L16.8563 6.88726L16.3165 6.47731C15.8127 6.10249 15.2728 5.79795 14.721 5.5754L14.0972 5.31772L13.6533 2.33089H10.3423L9.89845 5.31772L9.26264 5.56369C8.7348 5.78624 8.20696 6.07906 7.65513 6.48902L7.11529 6.87555L4.26016 5.76281L2.59267 8.56222L5.02793 10.4129L4.94395 11.0688C4.90209 11.3757 4.87806 11.6846 4.87197 11.9941C4.87197 12.2987 4.89597 12.6149 4.94395 12.9078L5.02793 13.5637L2.59267 15.4143L4.24816 18.2255L7.11529 17.101L7.65513 17.511C8.17097 17.8975 8.68682 18.1903 9.25065 18.4129L9.88645 18.6706L10.3423 21.6574Z" fill="black"/>
<path d="M11.9978 16.0937C14.3167 16.0937 16.1966 14.2582 16.1966 11.9941C16.1966 9.72997 14.3167 7.89453 11.9978 7.89453C9.67894 7.89453 7.7991 9.72997 7.7991 11.9941C7.7991 14.2582 9.67894 16.0937 11.9978 16.0937Z" fill="black"/>
</svg>
